<svg width="48" height="48" viewBox="0 0 48 48" fill="none" xmlns="http://www.w3.org/2000/svg">
  <!-- Bamboo pen holder -->
  <rect x="8" y="20" width="12" height="18" rx="2" fill="#D97706" stroke="#92400E" stroke-width="1"/>
  <line x1="10" y1="22" x2="18" y2="22" stroke="#92400E" stroke-width="0.5"/>
  <line x1="10" y1="35" x2="18" y2="35" stroke="#92400E" stroke-width="0.5"/>
  
  <!-- Pens -->
  <rect x="12" y="15" width="2" height="8" rx="1" fill="#1F2937"/>
  <rect x="15" y="12" width="2" height="11" rx="1" fill="#374151"/>
  
  <!-- Recycled notebook -->
  <rect x="25" y="15" width="16" height="20" rx="1" fill="#F3F4F6" stroke="#6B7280" stroke-width="1"/>
  <rect x="27" y="17" width="12" height="1" fill="#D1D5DB"/>
  <rect x="27" y="20" width="12" height="1" fill="#D1D5DB"/>
  <rect x="27" y="23" width="12" height="1" fill="#D1D5DB"/>
  
  <!-- Recycling symbol on notebook -->
  <circle cx="35" cy="30" r="3" fill="none" stroke="#10B981" stroke-width="1"/>
  <text x="35" y="32" text-anchor="middle" font-family="Arial" font-size="4" fill="#10B981">♻</text>
  
  <!-- Wooden organizer -->
  <rect x="5" y="38" width="38" height="8" rx="2" fill="#B45309" stroke="#92400E" stroke-width="1"/>
  <rect x="8" y="40" width="6" height="4" fill="#D97706"/>
  <rect x="18" y="40" width="12" height="4" fill="#D97706"/>
  <rect x="34" y="40" width="6" height="4" fill="#D97706"/>
  
  <!-- Eco leaf -->
  <path d="M2 8 Q7 3 12 8 Q7 13 2 8" fill="#10B981"/>
</svg>