<svg width="48" height="48" viewBox="0 0 48 48" fill="none" xmlns="http://www.w3.org/2000/svg">
  <!-- Traditional diya -->
  <ellipse cx="20" cy="25" rx="8" ry="3" fill="#D97706"/>
  <path d="M12 25 C12 20, 16 18, 20 18 C24 18, 28 20, 28 25" fill="#B45309"/>
  <ellipse cx="20" cy="18" rx="2" ry="1" fill="#92400E"/>
  
  <!-- Diya flame -->
  <ellipse cx="20" cy="15" rx="2" ry="4" fill="#F59E0B"/>
  <ellipse cx="20" cy="14" rx="1.5" ry="3" fill="#FCD34D"/>
  
  <!-- Decorative rangoli pattern -->
  <circle cx="35" cy="15" r="6" fill="none" stroke="#EC4899" stroke-width="1"/>
  <circle cx="35" cy="15" r="3" fill="none" stroke="#F59E0B" stroke-width="1"/>
  <circle cx="35" cy="15" r="1.5" fill="#D97706"/>
  
  <!-- Flower petals around rangoli -->
  <ellipse cx="35" cy="9" rx="1.5" ry="3" fill="#EC4899" transform="rotate(0 35 9)"/>
  <ellipse cx="41" cy="15" rx="1.5" ry="3" fill="#F59E0B" transform="rotate(90 41 15)"/>
  <ellipse cx="35" cy="21" rx="1.5" ry="3" fill="#EC4899" transform="rotate(180 35 21)"/>
  <ellipse cx="29" cy="15" rx="1.5" ry="3" fill="#F59E0B" transform="rotate(270 29 15)"/>
  
  <!-- Bamboo decoration -->
  <rect x="5" y="35" width="3" height="12" rx="1" fill="#059669"/>
  <line x1="6.5" y1="37" x2="6.5" y2="37" stroke="#047857" stroke-width="0.5"/>
  <line x1="6.5" y1="40" x2="6.5" y2="40" stroke="#047857" stroke-width="0.5"/>
  <line x1="6.5" y1="43" x2="6.5" y2="43" stroke="#047857" stroke-width="0.5"/>
  
  <!-- Eco-friendly garland -->
  <path d="M10 40 Q15 35 20 40 Q25 35 30 40 Q35 35 40 40" stroke="#10B981" stroke-width="2" fill="none"/>
  <circle cx="12" cy="38" r="1" fill="#34D399"/>
  <circle cx="18" cy="42" r="1" fill="#6EE7B7"/>
  <circle cx="22" cy="38" r="1" fill="#34D399"/>
  <circle cx="28" cy="42" r="1" fill="#6EE7B7"/>
  <circle cx="32" cy="38" r="1" fill="#34D399"/>
  <circle cx="38" cy="42" r="1" fill="#6EE7B7"/>
  
  <!-- Sustainable symbols -->
  <path d="M42 30 Q45 27 48 30 Q45 33 42 30" fill="#10B981"/>
  <circle cx="2" cy="20" r="1.5" fill="#059669"/>
  
  <!-- Traditional motif -->
  <path d="M8 15 Q12 10 16 15 Q12 20 8 15" fill="#EC4899" opacity="0.6"/>
</svg>