 <svg width="80" height="80" viewBox="0 0 80 80" fill="none" xmlns="http://www.w3.org/2000/svg">
    <!-- Candle base with natural texture -->
    <defs>
      <linearGradient id="soyGradient" x1="0%" y1="0%" x2="100%" y2="100%">
        <stop offset="0%" style="stop-color:#FEF3C7;stop-opacity:1" />
        <stop offset="50%" style="stop-color:#FDE68A;stop-opacity:1" />
        <stop offset="100%" style="stop-color:#F59E0B;stop-opacity:0.3" />
      </linearGradient>
    </defs>

    <rect x="30" y="30" width="20" height="40" rx="2" fill="url(#soyGradient)" stroke="#10B981" stroke-width="2"/>

    <!-- Natural wick -->
    <line x1="40" y1="30" x2="40" y2="20" stroke="#92400E" stroke-width="2"/>

    <!-- Clean flame -->
    <ellipse cx="40" cy="18" rx="4" ry="8" fill="#10B981" opacity="0.8"/>
    <ellipse cx="40" cy="16" rx="3" ry="6" fill="#34D399" opacity="0.9"/>
    <ellipse cx="40" cy="15" rx="2" ry="4" fill="#6EE7B7"/>

    <!-- Clean vapor -->
    <path d="M40 10 Q38 8 40 6 Q42 4 40 2" stroke="#D1FAE5" stroke-width="2" fill="none" opacity="0.7"/>
    <path d="M42 8 Q44 6 42 4 Q40 2 42 0" stroke="#D1FAE5" stroke-width="1.5" fill="none" opacity="0.5"/>

    <!-- Soy bean decoration -->
    <ellipse cx="35" cy="55" rx="2" ry="3" fill="#059669" transform="rotate(15 35 55)"/>
    <ellipse cx="45" cy="50" rx="2" ry="3" fill="#047857" transform="rotate(-20 45 50)"/>
    <ellipse cx="38" cy="62" rx="1.5" ry="2.5" fill="#10B981" transform="rotate(30 38 62)"/>

    <!-- Eco-friendly symbol -->
    <circle cx="60" cy="20" r="8" fill="#ECFDF5" stroke="#10B981" stroke-width="2"/>
    <path d="M56 20 L59 23 L64 17" stroke="#10B981" stroke-width="2" fill="none" stroke-linecap="round" stroke-linejoin="round"/>

    <!-- Natural particles -->
    <circle cx="15" cy="50" r="2" fill="#10B981" opacity="0.6"/>
    <circle cx="12" cy="55" r="1.5" fill="#059669" opacity="0.6"/>
    <circle cx="18" cy="58" r="1" fill="#047857" opacity="0.6"/>

    <circle cx="65" cy="45" r="2" fill="#10B981" opacity="0.6"/>
    <circle cx="68" cy="52" r="1.5" fill="#059669" opacity="0.6"/>
    <circle cx="62" cy="54" r="1" fill="#047857" opacity="0.6"/>

    <!-- Plant-based label -->
    <rect x="32" y="50" width="16" height="8" rx="1" fill="#ECFDF5" stroke="#10B981" stroke-width="1"/>
    <text x="40" y="56" text-anchor="middle" font-family="Arial" font-size="6" fill="#047857">SOY</text>

    <!-- Leaves -->
    <path d="M20 60 Q25 55 30 60 Q25 65 20 60" fill="#10B981"/>
    <path d="M50 65 Q55 60 60 65 Q55 70 50 65" fill="#059669"/>
  </svg>