<svg width="48" height="48" viewBox="0 0 48 48" fill="none" xmlns="http://www.w3.org/2000/svg">
  <!-- Ceramic mug -->
  <path d="M8 15 L8 35 Q8 38 11 38 L22 38 Q25 38 25 35 L25 15 Z" fill="#F3F4F6" stroke="#6B7280" stroke-width="1"/>
  <path d="M25 22 Q30 22 30 27 Q30 32 25 32" fill="none" stroke="#6B7280" stroke-width="1"/>
  
  <!-- Artisan pattern on mug -->
  <circle cx="16.5" cy="26" r="4" fill="none" stroke="#AB8648" stroke-width="0.8"/>
  <circle cx="16.5" cy="26" r="2" fill="#AB8648" opacity="0.3"/>
  
  <!-- Copper bottle -->
  <ellipse cx="40" cy="35" rx="4" ry="2" fill="#D97706"/>
  <rect x="36" y="12" width="8" height="25" rx="1" fill="#F59E0B" stroke="#D97706" stroke-width="1"/>
  <rect x="38" y="8" width="4" height="6" rx="1" fill="#D97706"/>
  <circle cx="40" cy="8" r="2" fill="#92400E"/>
  
  <!-- Copper shine -->
  <line x1="37" y1="15" x2="37" y2="30" stroke="#FCD34D" stroke-width="1" opacity="0.7"/>
  
  <!-- Steam/freshness -->
  <path d="M18 10 Q16 8 18 6 Q20 4 18 2" stroke="#D1FAE5" stroke-width="1.5" fill="none" opacity="0.7"/>
  <path d="M42 5 Q40 3 42 1" stroke="#D1FAE5" stroke-width="1" fill="none" opacity="0.7"/>
  
  <!-- Eco leaves -->
  <path d="M2 5 Q5 2 8 5 Q5 8 2 5" fill="#10B981"/>
  <path d="M28 5 Q31 2 34 5 Q31 8 28 5" fill="#059669"/>
</svg>